<?xml version="1.0" standalone="no"?>
<!DOCTYPE svg PUBLIC "-//W3C//DTD SVG 20010904//EN"
 "http://www.w3.org/TR/2001/REC-SVG-20010904/DTD/svg10.dtd">
<svg version="1.0" xmlns="http://www.w3.org/2000/svg"
 width="800.000000pt" height="800.000000pt" viewBox="0 0 800.000000 800.000000"
 preserveAspectRatio="xMidYMid meet">
<metadata>
Created by potrace 1.11, written by Peter Selinger 2001-2013
</metadata>
<g transform="translate(0.000000,800.000000) scale(0.100000,-0.100000)"
fill="#000000" stroke="none">
<path d="M3525 7993 c-16 -2 -86 -13 -155 -24 -914 -145 -1764 -610 -2372
-1299 -459 -519 -772 -1132 -922 -1800 -70 -314 -71 -328 -71 -870 0 -471 1
-501 23 -625 102 -580 284 -1060 581 -1530 140 -222 388 -532 558 -697 l58
-57 165 96 c91 52 318 183 505 290 435 250 644 371 675 393 14 9 54 33 90 52
74 40 52 27 390 223 140 81 361 208 490 282 265 153 417 240 670 388 96 56
315 182 485 280 171 98 362 208 425 245 63 37 180 105 260 150 144 82 232 133
675 389 127 74 304 176 395 228 91 53 228 133 305 178 77 45 165 96 195 112
30 17 213 121 405 233 193 111 394 228 448 259 62 35 97 62 97 72 0 31 -81
299 -127 423 -238 636 -612 1185 -1103 1618 -519 459 -1132 772 -1800 922
-307 68 -323 70 -840 72 -261 1 -488 0 -505 -3z m64 -910 c0 -5 -89 -185 -198
-402 l-198 -395 -196 393 c-109 216 -197 397 -197 402 0 5 158 9 395 9 217 0
395 -3 394 -7z m78 -225 c28 -46 114 -189 193 -318 79 -129 182 -300 230 -380
48 -80 131 -217 185 -305 170 -280 295 -486 388 -638 89 -148 89 -148 153
-180 35 -17 64 -35 64 -39 0 -8 -438 -889 -446 -897 -3 -3 -33 9 -69 27 -73
36 -70 27 -79 230 -3 62 -9 119 -14 125 -5 7 -79 134 -164 282 -85 149 -190
331 -233 405 -43 74 -182 317 -310 540 -128 223 -247 429 -264 459 -22 37 -30
60 -25 75 4 11 48 104 99 206 50 102 125 254 165 338 41 83 75 152 76 152 1 0
24 -37 51 -82z m-706 -273 c93 -190 169 -350 169 -355 0 -10 -45 -91 -195
-350 -149 -257 -265 -462 -265 -466 0 -2 166 -4 370 -4 l370 0 2 177 3 178 54
-95 c30 -52 62 -108 71 -125 21 -38 48 -85 154 -273 l87 -153 -3 -127 -3 -127
-699 -3 c-515 -1 -702 1 -707 9 -8 14 -6 17 -144 -224 l-107 -189 -6 -146 -7
-147 -67 -35 c-37 -19 -69 -32 -71 -30 -2 3 -104 205 -226 449 -155 310 -219
447 -212 454 6 6 37 25 68 41 62 34 34 -8 357 526 35 58 127 211 206 340 79
129 155 255 170 280 15 25 91 151 170 280 79 129 162 267 186 306 66 111 94
154 100 154 3 0 81 -155 175 -345z m-1273 -2069 c122 -245 222 -447 222 -450
0 -4 -203 -6 -451 -6 -250 0 -449 4 -447 9 14 37 444 891 448 891 3 0 106
-200 228 -444z m3701 -448 c1 -5 -201 -8 -449 -8 -247 0 -450 2 -450 5 0 9
432 869 443 883 8 11 63 -89 233 -430 123 -243 223 -446 223 -450z"/>
<path d="M7795 3998 c-104 -60 -264 -153 -355 -205 -91 -53 -217 -126 -280
-163 -63 -37 -252 -146 -420 -242 -168 -97 -394 -228 -503 -292 -109 -64 -200
-116 -202 -116 -4 0 -279 -159 -590 -340 -82 -48 -247 -143 -365 -210 -118
-68 -307 -177 -420 -243 -113 -66 -252 -147 -310 -180 -58 -33 -278 -160 -490
-282 -212 -122 -448 -259 -525 -303 -144 -82 -335 -192 -605 -350 -85 -49
-263 -152 -395 -228 -463 -266 -448 -256 -433 -270 21 -20 263 -153 368 -202
347 -162 692 -271 1075 -339 l160 -28 495 0 c542 0 556 1 870 71 826 185 1580
628 2132 1254 459 519 772 1132 922 1800 61 276 69 345 73 673 3 169 1 307 -4
306 -4 -1 -93 -51 -198 -111z"/>
</g>
</svg>
